<svg xmlns="http://www.w3.org/2000/svg" viewBox="0 0 600 600" width="600" height="600">
<defs>
<linearGradient id="bg" x1="0" y1="0" x2="0" y2="1"><stop offset="0" stop-color="#0c2530"/><stop offset="1" stop-color="#2b5866"/></linearGradient></defs>
<rect width="600" height="600" fill="url(#bg)"/>
<rect x="40" y="40" width="520" height="520" rx="26" fill="none" stroke="#a8d5d8" stroke-width="6" opacity=".35"/>
<line x1="300" y1="40" x2="300" y2="560" stroke="#a8d5d8" stroke-width="5" opacity=".25"/><line x1="40" y1="300" x2="560" y2="300" stroke="#a8d5d8" stroke-width="5" opacity=".25"/>
<line x1="163.3" y1="304.8" x2="151.4" y2="347.0" stroke="#d6f3f5" stroke-width="2.1" stroke-linecap="round" opacity="0.4"/>
<line x1="66.7" y1="7.4" x2="49.1" y2="70.2" stroke="#d6f3f5" stroke-width="1.7" stroke-linecap="round" opacity="0.2"/>
<line x1="587.6" y1="263.3" x2="570.0" y2="326.2" stroke="#d6f3f5" stroke-width="2.0" stroke-linecap="round" opacity="0.4"/>
<line x1="114.3" y1="355.5" x2="96.4" y2="419.7" stroke="#d6f3f5" stroke-width="2.0" stroke-linecap="round" opacity="0.4"/>
<line x1="406.0" y1="35.9" x2="389.4" y2="95.2" stroke="#d6f3f5" stroke-width="2.1" stroke-linecap="round" opacity="0.3"/>
<line x1="47.4" y1="484.7" x2="34.3" y2="531.5" stroke="#d6f3f5" stroke-width="2.3" stroke-linecap="round" opacity="0.5"/>
<line x1="429.9" y1="515.8" x2="417.8" y2="559.2" stroke="#d6f3f5" stroke-width="2.4" stroke-linecap="round" opacity="0.3"/>
<line x1="553.9" y1="492.2" x2="545.4" y2="522.5" stroke="#d6f3f5" stroke-width="1.6" stroke-linecap="round" opacity="0.2"/>
<line x1="570.7" y1="244.3" x2="555.7" y2="297.8" stroke="#d6f3f5" stroke-width="1.8" stroke-linecap="round" opacity="0.4"/>
<line x1="246.1" y1="196.5" x2="231.6" y2="248.3" stroke="#d6f3f5" stroke-width="2.1" stroke-linecap="round" opacity="0.5"/>
<line x1="411.9" y1="520.2" x2="394.1" y2="583.9" stroke="#d6f3f5" stroke-width="2.6" stroke-linecap="round" opacity="0.4"/>
<line x1="121.3" y1="482.0" x2="102.2" y2="550.4" stroke="#d6f3f5" stroke-width="2.5" stroke-linecap="round" opacity="0.4"/>
<line x1="429.7" y1="118.2" x2="412.2" y2="180.8" stroke="#d6f3f5" stroke-width="2.1" stroke-linecap="round" opacity="0.3"/>
<line x1="65.5" y1="478.2" x2="46.1" y2="547.8" stroke="#d6f3f5" stroke-width="1.5" stroke-linecap="round" opacity="0.5"/>
<line x1="259.9" y1="84.4" x2="249.0" y2="123.4" stroke="#d6f3f5" stroke-width="2.3" stroke-linecap="round" opacity="0.5"/>
<line x1="54.7" y1="344.1" x2="46.9" y2="372.1" stroke="#d6f3f5" stroke-width="2.3" stroke-linecap="round" opacity="0.3"/>
<line x1="523.3" y1="549.2" x2="509.8" y2="597.4" stroke="#d6f3f5" stroke-width="2.6" stroke-linecap="round" opacity="0.3"/>
<line x1="73.1" y1="335.9" x2="65.4" y2="363.2" stroke="#d6f3f5" stroke-width="1.6" stroke-linecap="round" opacity="0.3"/>
<line x1="371.9" y1="87.5" x2="364.1" y2="115.3" stroke="#d6f3f5" stroke-width="2.4" stroke-linecap="round" opacity="0.3"/>
<line x1="566.8" y1="502.1" x2="554.9" y2="544.8" stroke="#d6f3f5" stroke-width="2.0" stroke-linecap="round" opacity="0.4"/>
<line x1="390.6" y1="333.6" x2="376.4" y2="384.2" stroke="#d6f3f5" stroke-width="2.1" stroke-linecap="round" opacity="0.5"/>
<line x1="313.9" y1="241.5" x2="297.8" y2="299.2" stroke="#d6f3f5" stroke-width="1.7" stroke-linecap="round" opacity="0.3"/>
<line x1="577.6" y1="291.8" x2="563.5" y2="342.0" stroke="#d6f3f5" stroke-width="1.4" stroke-linecap="round" opacity="0.3"/>
<line x1="354.8" y1="11.2" x2="339.9" y2="64.3" stroke="#d6f3f5" stroke-width="2.2" stroke-linecap="round" opacity="0.2"/>
<line x1="381.3" y1="261.1" x2="365.7" y2="317.0" stroke="#d6f3f5" stroke-width="1.8" stroke-linecap="round" opacity="0.4"/>
<line x1="443.3" y1="12.4" x2="435.3" y2="41.1" stroke="#d6f3f5" stroke-width="2.2" stroke-linecap="round" opacity="0.5"/>
<line x1="170.6" y1="255.5" x2="156.0" y2="307.6" stroke="#d6f3f5" stroke-width="1.8" stroke-linecap="round" opacity="0.3"/>
<line x1="205.1" y1="206.7" x2="190.5" y2="258.9" stroke="#d6f3f5" stroke-width="1.8" stroke-linecap="round" opacity="0.3"/>
<line x1="462.5" y1="15.1" x2="448.2" y2="66.1" stroke="#d6f3f5" stroke-width="2.3" stroke-linecap="round" opacity="0.3"/>
<line x1="154.6" y1="450.1" x2="144.4" y2="486.6" stroke="#d6f3f5" stroke-width="1.6" stroke-linecap="round" opacity="0.3"/>
<line x1="420.9" y1="57.0" x2="409.7" y2="97.2" stroke="#d6f3f5" stroke-width="1.8" stroke-linecap="round" opacity="0.5"/>
<line x1="275.5" y1="479.1" x2="266.2" y2="512.5" stroke="#d6f3f5" stroke-width="1.8" stroke-linecap="round" opacity="0.4"/>
<line x1="525.5" y1="252.6" x2="515.5" y2="288.5" stroke="#d6f3f5" stroke-width="1.5" stroke-linecap="round" opacity="0.4"/>
<line x1="136.9" y1="451.8" x2="119.2" y2="514.7" stroke="#d6f3f5" stroke-width="1.6" stroke-linecap="round" opacity="0.3"/>
<line x1="482.0" y1="359.5" x2="464.8" y2="421.0" stroke="#d6f3f5" stroke-width="1.8" stroke-linecap="round" opacity="0.2"/>
<line x1="193.5" y1="444.6" x2="182.9" y2="482.5" stroke="#d6f3f5" stroke-width="1.8" stroke-linecap="round" opacity="0.3"/>
<line x1="265.1" y1="229.3" x2="246.4" y2="295.8" stroke="#d6f3f5" stroke-width="1.6" stroke-linecap="round" opacity="0.2"/>
<line x1="558.2" y1="492.8" x2="538.8" y2="562.2" stroke="#d6f3f5" stroke-width="1.9" stroke-linecap="round" opacity="0.5"/>
<line x1="549.3" y1="124.4" x2="532.9" y2="183.2" stroke="#d6f3f5" stroke-width="2.4" stroke-linecap="round" opacity="0.4"/>
<line x1="320.6" y1="161.9" x2="309.2" y2="202.9" stroke="#d6f3f5" stroke-width="1.7" stroke-linecap="round" opacity="0.2"/>
<line x1="359.7" y1="160.7" x2="342.4" y2="222.4" stroke="#d6f3f5" stroke-width="1.5" stroke-linecap="round" opacity="0.5"/>
<line x1="418.5" y1="517.4" x2="400.1" y2="582.8" stroke="#d6f3f5" stroke-width="2.5" stroke-linecap="round" opacity="0.4"/>
<line x1="37.4" y1="417.4" x2="28.0" y2="450.9" stroke="#d6f3f5" stroke-width="1.8" stroke-linecap="round" opacity="0.4"/>
<line x1="324.0" y1="231.7" x2="305.1" y2="299.0" stroke="#d6f3f5" stroke-width="2.1" stroke-linecap="round" opacity="0.3"/>
<line x1="171.4" y1="482.5" x2="158.2" y2="529.5" stroke="#d6f3f5" stroke-width="2.3" stroke-linecap="round" opacity="0.3"/>
<line x1="140.5" y1="299.4" x2="123.2" y2="361.3" stroke="#d6f3f5" stroke-width="1.6" stroke-linecap="round" opacity="0.5"/>
<line x1="546.2" y1="451.4" x2="528.8" y2="513.6" stroke="#d6f3f5" stroke-width="1.4" stroke-linecap="round" opacity="0.4"/>
<line x1="513.0" y1="28.0" x2="502.4" y2="65.9" stroke="#d6f3f5" stroke-width="1.7" stroke-linecap="round" opacity="0.4"/>
<line x1="266.9" y1="264.8" x2="250.0" y2="325.0" stroke="#d6f3f5" stroke-width="1.4" stroke-linecap="round" opacity="0.2"/>
<line x1="101.0" y1="69.8" x2="92.9" y2="98.8" stroke="#d6f3f5" stroke-width="2.6" stroke-linecap="round" opacity="0.5"/>
<line x1="78.2" y1="281.2" x2="67.1" y2="321.1" stroke="#d6f3f5" stroke-width="1.8" stroke-linecap="round" opacity="0.3"/>
<line x1="392.3" y1="328.5" x2="380.5" y2="370.4" stroke="#d6f3f5" stroke-width="1.6" stroke-linecap="round" opacity="0.3"/>
<line x1="99.3" y1="311.1" x2="83.2" y2="368.6" stroke="#d6f3f5" stroke-width="1.9" stroke-linecap="round" opacity="0.2"/>
<line x1="130.0" y1="209.0" x2="115.3" y2="261.6" stroke="#d6f3f5" stroke-width="2.3" stroke-linecap="round" opacity="0.3"/>
<line x1="478.7" y1="348.8" x2="466.1" y2="393.8" stroke="#d6f3f5" stroke-width="1.8" stroke-linecap="round" opacity="0.3"/>
<line x1="423.6" y1="235.5" x2="407.8" y2="292.0" stroke="#d6f3f5" stroke-width="2.0" stroke-linecap="round" opacity="0.2"/>
<line x1="330.1" y1="389.3" x2="321.9" y2="418.4" stroke="#d6f3f5" stroke-width="1.9" stroke-linecap="round" opacity="0.3"/>
<line x1="522.6" y1="524.4" x2="510.7" y2="566.9" stroke="#d6f3f5" stroke-width="2.5" stroke-linecap="round" opacity="0.5"/>
<line x1="176.8" y1="259.9" x2="168.0" y2="291.3" stroke="#d6f3f5" stroke-width="2.4" stroke-linecap="round" opacity="0.4"/>
<line x1="526.9" y1="443.8" x2="511.4" y2="499.2" stroke="#d6f3f5" stroke-width="2.3" stroke-linecap="round" opacity="0.4"/>
<line x1="87.8" y1="329.1" x2="80.4" y2="355.4" stroke="#d6f3f5" stroke-width="1.6" stroke-linecap="round" opacity="0.5"/>
<line x1="54.8" y1="51.4" x2="46.3" y2="81.8" stroke="#d6f3f5" stroke-width="2.5" stroke-linecap="round" opacity="0.2"/>
<line x1="43.2" y1="471.3" x2="34.4" y2="502.6" stroke="#d6f3f5" stroke-width="2.4" stroke-linecap="round" opacity="0.4"/>
<line x1="498.3" y1="533.4" x2="483.8" y2="584.8" stroke="#d6f3f5" stroke-width="2.4" stroke-linecap="round" opacity="0.2"/>
<line x1="459.8" y1="286.3" x2="443.7" y2="343.8" stroke="#d6f3f5" stroke-width="1.5" stroke-linecap="round" opacity="0.4"/>
<line x1="553.4" y1="34.2" x2="542.1" y2="74.5" stroke="#d6f3f5" stroke-width="2.1" stroke-linecap="round" opacity="0.5"/>
<line x1="165.6" y1="100.7" x2="155.2" y2="137.7" stroke="#d6f3f5" stroke-width="2.1" stroke-linecap="round" opacity="0.5"/>
<line x1="250.5" y1="205.8" x2="238.3" y2="249.2" stroke="#d6f3f5" stroke-width="1.8" stroke-linecap="round" opacity="0.3"/>
<line x1="76.6" y1="280.2" x2="57.4" y2="349.0" stroke="#d6f3f5" stroke-width="1.9" stroke-linecap="round" opacity="0.4"/>
<line x1="119.9" y1="386.9" x2="103.4" y2="446.1" stroke="#d6f3f5" stroke-width="2.2" stroke-linecap="round" opacity="0.4"/>
<rect x="130" y="320" width="340" height="200" rx="20" fill="#f2c879"/>
<rect x="150" y="338" width="300" height="82" rx="10" fill="#fff4d6"/>
<rect x="170" y="352" width="260" height="8" rx="4" fill="#e06c4a"/><rect x="170" y="370" width="200" height="8" rx="4" fill="#3c6e7b" opacity=".8"/>
<rect x="205" y="432" width="190" height="62" rx="31" fill="#23404a"/>
<circle cx="238" cy="463" r="24" fill="#f2c879"/><circle cx="238" cy="463" r="9" fill="#23404a"/>
<line x1="247.0" y1="463.0" x2="258.0" y2="463.0" stroke="#23404a" stroke-width="3"/>
<line x1="242.5" y1="470.8" x2="248.0" y2="480.3" stroke="#23404a" stroke-width="3"/>
<line x1="233.5" y1="470.8" x2="228.0" y2="480.3" stroke="#23404a" stroke-width="3"/>
<line x1="229.0" y1="463.0" x2="218.0" y2="463.0" stroke="#23404a" stroke-width="3"/>
<line x1="233.5" y1="455.2" x2="228.0" y2="445.7" stroke="#23404a" stroke-width="3"/>
<line x1="242.5" y1="455.2" x2="248.0" y2="445.7" stroke="#23404a" stroke-width="3"/>
<circle cx="362" cy="463" r="24" fill="#f2c879"/><circle cx="362" cy="463" r="9" fill="#23404a"/>
<line x1="371.0" y1="463.0" x2="382.0" y2="463.0" stroke="#23404a" stroke-width="3"/>
<line x1="366.5" y1="470.8" x2="372.0" y2="480.3" stroke="#23404a" stroke-width="3"/>
<line x1="357.5" y1="470.8" x2="352.0" y2="480.3" stroke="#23404a" stroke-width="3"/>
<line x1="353.0" y1="463.0" x2="342.0" y2="463.0" stroke="#23404a" stroke-width="3"/>
<line x1="357.5" y1="455.2" x2="352.0" y2="445.7" stroke="#23404a" stroke-width="3"/>
<line x1="366.5" y1="455.2" x2="372.0" y2="445.7" stroke="#23404a" stroke-width="3"/>
<circle cx="152" cy="500" r="6" fill="#c9974a"/><circle cx="448" cy="500" r="6" fill="#c9974a"/>
</svg>
